<svg xmlns="http://www.w3.org/2000/svg" id="vegan" viewBox="0 0 64 64">
  <circle cx="27" cy="24" r="9" style="fill:#d37631"></circle>
  <path d="m30.71,33.54l-13.25-13.25c-.39-.39-1.02-.39-1.41,0-1.96,1.95-3.04,4.56-3.04,7.33,0,5.72,4.65,10.38,10.37,10.38,2.78,0,5.38-1.08,7.33-3.04.39-.39.39-1.02,0-1.41Z" style="fill:#730216"></path>
  <path d="m23.71,33.54l-13.25-13.25c-.39-.39-1.02-.39-1.41,0-1.96,1.95-3.04,4.56-3.04,7.33,0,5.72,4.65,10.38,10.37,10.38,2.78,0,5.38-1.08,7.33-3.04.39-.39.39-1.02,0-1.41Z" style="fill:#f20519"></path>
  <path d="m47,22c-6.07,0-11,4.93-11,11,0,.55.45,1,1,1h20c.55,0,1-.45,1-1,0-6.07-4.93-11-11-11Z" style="fill:#477302"></path>
  <path d="m47,26c-3.86,0-7,3.14-7,7,0,.55.45,1,1,1h12c.55,0,1-.45,1-1,0-3.86-3.14-7-7-7Z" style="fill:#84bf03"></path>
  <path d="m39.13,30.66c-.29-.3-.43-.72-.37-1.14.25-1.8-.95-3.46-2.75-3.78-.42-.07-.77-.33-.97-.7-.85-1.61-2.81-2.25-4.45-1.44-.38.19-.82.19-1.2,0-1.64-.8-3.59-.17-4.45,1.45-.2.37-.55.63-.97.7-1.79.31-3,1.97-2.75,3.78.06.41-.08.84-.37,1.14-1.26,1.31-1.26,3.36,0,4.67.29.3.43.72.37,1.14-.25,1.8.95,3.46,2.75,3.78,0,0,.02,0,.03,0,.41.08.75.33.94.7.6,1.14,1.76,1.79,2.96,1.79.5,0,1-.11,1.49-.35.38-.19.82-.19,1.2,0,1.63.8,3.59.17,4.45-1.45.19-.37.54-.62.94-.7,0,0,.02,0,.03,0,1.79-.31,3-1.97,2.75-3.78-.06-.42.08-.83.36-1.12h0s0-.01.01-.02c1.27-1.31,1.27-3.36,0-4.67Z" style="fill:#f3994b"></path>
  <path d="m45,54h-26c-.55,0-1,.45-1,1v4c0,1.65,1.35,3,3,3h22c1.65,0,3-1.35,3-3v-4c0-.55-.45-1-1-1Z" style="fill:#f20519"></path>
  <path d="m61.46,32.63c-.38-.4-.91-.63-1.46-.63H4.01c-.55,0-1.08.23-1.46.63-.38.4-.57.91-.54,1.46.47,8.93,6.82,17.29,16.56,21.82.13.06.28.09.42.09h26.02c.15,0,.29-.03.42-.09,9.74-4.53,16.09-12.9,16.56-21.82h0c.03-.54-.16-1.06-.54-1.46Z" style="fill:#f1f2f2"></path>
  <path d="m15.52,48c-.22,0-.44-.07-.63-.22-3.3-2.67-5.71-5.94-6.95-9.44-.18-.52.09-1.09.61-1.28.52-.18,1.09.09,1.28.61,1.12,3.16,3.31,6.12,6.32,8.56.43.35.5.98.15,1.41-.2.24-.49.37-.78.37Z" style="fill:#d1d3d4"></path>
  <path d="m19.71 9.44-7.14-7.14c-.39-.39-1.02-.39-1.41 0l-2.86 2.86c-.19.19-.29.44-.29.71s.11.52.29.71l7.14 7.14c.19.19.44.29.71.29s.52-.11.71-.29l2.86-2.86c.39-.39.39-1.02 0-1.41ZM57.71 9.15l-2.86-2.86c-.39-.39-1.02-.39-1.41 0l-7.14 7.14c-.39.39-.39 1.02 0 1.41l2.86 2.86c.19.19.44.29.71.29s.52-.11.71-.29l7.14-7.14c.19-.19.29-.44.29-.71s-.11-.52-.29-.71Z" style="fill:#f3994b"></path>
  <circle cx="40" cy="16" r="3" style="fill:#f20519"></circle>
  <rect width="14" height="6" x="24" y="5" rx="1" ry="1" style="fill:#84bf03"></rect>
  <circle cx="9" cy="15" r="3" style="fill:#84bf03"></circle>
</svg>
